<svg width="12" height="12" viewBox="0 0 12 12" fill="none" xmlns="http://www.w3.org/2000/svg">
<path d="M0 1.73852C0 1.38478 0.357263 1.14291 0.685695 1.27428L4.68569 2.87428C4.87552 2.95021 5 3.13406 5 3.33852V11.2615C5 11.6152 4.64274 11.8571 4.3143 11.7257L0.314305 10.1257C0.124476 10.0498 0 9.86594 0 9.66148V1.73852Z" fill="#888888"/>
<path d="M7 3.33852C7 3.13406 7.12448 2.95021 7.3143 2.87428L11.3143 1.27428C11.6427 1.14291 12 1.38478 12 1.73852V9.19098C12 9.38037 11.893 9.5535 11.7236 9.6382L7.72361 11.6382C7.39116 11.8044 7 11.5627 7 11.191V3.33852Z" fill="#888888"/>
</svg>
