<svg width="160" height="31" viewBox="0 0 160 31" fill="none" xmlns="http://www.w3.org/2000/svg">
<path d="M0.28 2.08H13.2C14.3467 2.08 15.3733 2.25333 16.28 2.6C17.2133 2.94666 18 3.42666 18.64 4.04C19.28 4.65333 19.76 5.41333 20.08 6.32C20.4267 7.2 20.6 8.17333 20.6 9.24C20.6 10.3067 20.4533 11.2133 20.16 11.96C19.8933 12.68 19.52 13.28 19.04 13.76C18.5867 14.24 18.0533 14.6 17.44 14.84C16.8533 15.08 16.24 15.2133 15.6 15.24V15.48C16.2133 15.48 16.8667 15.6 17.56 15.84C18.28 16.08 18.9333 16.4667 19.52 17C20.1333 17.5067 20.64 18.1733 21.04 19C21.44 19.8 21.64 20.8 21.64 22C21.64 23.12 21.4533 24.1733 21.08 25.16C20.7333 26.12 20.24 26.96 19.6 27.68C18.96 28.4 18.2 28.9733 17.32 29.4C16.44 29.8 15.48 30 14.44 30H0.28V2.08ZM5.56 25.52H12.92C13.9333 25.52 14.72 25.2667 15.28 24.76C15.84 24.2267 16.12 23.4667 16.12 22.48V21.12C16.12 20.1333 15.84 19.3733 15.28 18.84C14.72 18.3067 13.9333 18.04 12.92 18.04H5.56V25.52ZM5.56 13.72H12.08C13.04 13.72 13.7867 13.4667 14.32 12.96C14.8533 12.4267 15.12 11.6933 15.12 10.76V9.52C15.12 8.58666 14.8533 7.86666 14.32 7.36C13.7867 6.82667 13.04 6.56 12.08 6.56H5.56V13.72ZM34.7634 30.48C33.2701 30.48 31.9234 30.2267 30.7234 29.72C29.5501 29.2133 28.5368 28.48 27.6834 27.52C26.8568 26.56 26.2168 25.4133 25.7634 24.08C25.3101 22.72 25.0834 21.2 25.0834 19.52C25.0834 17.84 25.3101 16.3333 25.7634 15C26.2168 13.6667 26.8568 12.5333 27.6834 11.6C28.5368 10.64 29.5501 9.90667 30.7234 9.4C31.9234 8.89333 33.2701 8.64 34.7634 8.64C36.2568 8.64 37.6034 8.89333 38.8034 9.4C40.0034 9.90667 41.0168 10.64 41.8434 11.6C42.6968 12.5333 43.3501 13.6667 43.8034 15C44.2568 16.3333 44.4834 17.84 44.4834 19.52C44.4834 21.2 44.2568 22.72 43.8034 24.08C43.3501 25.4133 42.6968 26.56 41.8434 27.52C41.0168 28.48 40.0034 29.2133 38.8034 29.72C37.6034 30.2267 36.2568 30.48 34.7634 30.48ZM34.7634 26.36C36.1234 26.36 37.1901 25.9467 37.9634 25.12C38.7368 24.2933 39.1234 23.08 39.1234 21.48V17.6C39.1234 16.0267 38.7368 14.8267 37.9634 14C37.1901 13.1733 36.1234 12.76 34.7634 12.76C33.4301 12.76 32.3768 13.1733 31.6034 14C30.8301 14.8267 30.4434 16.0267 30.4434 17.6V21.48C30.4434 23.08 30.8301 24.2933 31.6034 25.12C32.3768 25.9467 33.4301 26.36 34.7634 26.36ZM57.3025 30.48C55.8092 30.48 54.4625 30.2267 53.2625 29.72C52.0892 29.2133 51.0758 28.48 50.2225 27.52C49.3958 26.56 48.7558 25.4133 48.3025 24.08C47.8492 22.72 47.6225 21.2 47.6225 19.52C47.6225 17.84 47.8492 16.3333 48.3025 15C48.7558 13.6667 49.3958 12.5333 50.2225 11.6C51.0758 10.64 52.0892 9.90667 53.2625 9.4C54.4625 8.89333 55.8092 8.64 57.3025 8.64C58.7958 8.64 60.1425 8.89333 61.3425 9.4C62.5425 9.90667 63.5558 10.64 64.3825 11.6C65.2358 12.5333 65.8892 13.6667 66.3425 15C66.7958 16.3333 67.0225 17.84 67.0225 19.52C67.0225 21.2 66.7958 22.72 66.3425 24.08C65.8892 25.4133 65.2358 26.56 64.3825 27.52C63.5558 28.48 62.5425 29.2133 61.3425 29.72C60.1425 30.2267 58.7958 30.48 57.3025 30.48ZM57.3025 26.36C58.6625 26.36 59.7292 25.9467 60.5025 25.12C61.2758 24.2933 61.6625 23.08 61.6625 21.48V17.6C61.6625 16.0267 61.2758 14.8267 60.5025 14C59.7292 13.1733 58.6625 12.76 57.3025 12.76C55.9692 12.76 54.9158 13.1733 54.1425 14C53.3692 14.8267 52.9825 16.0267 52.9825 17.6V21.48C52.9825 23.08 53.3692 24.2933 54.1425 25.12C54.9158 25.9467 55.9692 26.36 57.3025 26.36ZM71.5616 0.4H76.6816V18.24H76.8816L79.6416 14.48L84.3216 9.12H90.1216L82.9216 17.2L90.8816 30H84.8016L79.4416 20.64L76.6816 23.64V30H71.5616V0.4ZM92.5425 30V25.92L103.383 13.16H92.9025V9.12H109.383V13.08L98.4625 25.92H109.663V30H92.5425Z" fill="#2615E4"/>
<path d="M117.101 30.44C116.007 30.44 115.194 30.1733 114.661 29.64C114.154 29.08 113.901 28.3733 113.901 27.52V26.8C113.901 25.9467 114.154 25.24 114.661 24.68C115.194 24.12 116.007 23.84 117.101 23.84C118.221 23.84 119.034 24.12 119.541 24.68C120.047 25.24 120.301 25.9467 120.301 26.8V27.52C120.301 28.3733 120.047 29.08 119.541 29.64C119.034 30.1733 118.221 30.44 117.101 30.44ZM126.015 30V9.12H131.135V13.44H131.335C131.468 12.88 131.668 12.3467 131.935 11.84C132.228 11.3067 132.601 10.84 133.055 10.44C133.508 10.04 134.041 9.72 134.655 9.48C135.295 9.24 136.028 9.12 136.855 9.12H137.975V13.96H136.375C134.641 13.96 133.335 14.2133 132.455 14.72C131.575 15.2267 131.135 16.0533 131.135 17.2V30H126.015ZM154.198 26.52H153.998C153.811 27.0533 153.558 27.56 153.238 28.04C152.944 28.4933 152.558 28.9067 152.078 29.28C151.624 29.6533 151.064 29.9467 150.398 30.16C149.758 30.3733 149.011 30.48 148.158 30.48C145.998 30.48 144.344 29.7733 143.198 28.36C142.051 26.9467 141.478 24.9333 141.478 22.32V9.12H146.598V21.8C146.598 23.24 146.878 24.3467 147.438 25.12C147.998 25.8667 148.891 26.24 150.118 26.24C150.624 26.24 151.118 26.1733 151.598 26.04C152.104 25.9067 152.544 25.7067 152.918 25.44C153.291 25.1467 153.598 24.8 153.838 24.4C154.078 23.9733 154.198 23.48 154.198 22.92V9.12H159.318V30H154.198V26.52Z" fill="#FF6B00"/>
</svg>
